# xmcd
#
# Track frame offsets:
#	151
#	19952
#	40388
#	55402
#	76110
#	90237
#	103306
#	119319
#	134922
#	149012
#	167312
#
# Disc length: 2453 seconds
#
# Revision: 1
# Processed by: cddbd v1.5.1PL2 Copyright (c) Steve Scherf et al.
# Submitted via: EasyCDDAExtractor 7.0.5.1
#
DISCID=9709930b
DTITLE=關正傑
DYEAR=1984
DGENRE=
TTITLE0=曾為你'個夢
TTITLE1=靜
TTITLE2=情若老
TTITLE3=故夢
TTITLE4=一把聲音
TTITLE5=香江歲月
TTITLE6=偎依黃昏裡
TTITLE7=痴到情之最
TTITLE8=寶貝兒
TTITLE9=是你是你是你
TTITLE10=舞會
EXTD=
EXTT0=
EXTT1=
EXTT2=
EXTT3=
EXTT4=
EXTT5=
EXTT6=
EXTT7=
EXTT8=
EXTT9=
EXTT10=
PLAYORDER=
